<svg xmlns="http://www.w3.org/2000/svg" viewBox="0 0 3300 2200">
  <g id="Guides">
    <path id="Baseline-S" d="M0 1700H3300" fill="none"/>
    <path id="Baseline-M" d="M0 1700H3300" fill="none"/>
    <path id="Baseline-L" d="M0 1700H3300" fill="none"/>
    <path id="Capline-S" d="M0 500H3300" fill="none"/>
    <path id="Capline-M" d="M0 500H3300" fill="none"/>
    <path id="Capline-L" d="M0 500H3300" fill="none"/>
  </g>
  <g id="Symbols">
    <g id="Regular-M" transform="matrix(100 0 0 100 450 0)" fill="#000">
      <path d="M2.35 9.62C2.11 9.35 2.12 8.94 2.38 8.69C2.64 8.43 3.05 8.43 3.31 8.69C5.68 11.13 8.57 12.34 12 12.34C15.43 12.34 18.32 11.13 20.69 8.69C20.95 8.43 21.36 8.43 21.62 8.69C21.88 8.94 21.89 9.35 21.65 9.62C19.06 12.47 15.84 13.9 12 13.9C8.16 13.9 4.94 12.47 2.35 9.62Z"/>
      <path d="M2.32 14.55L4.44 11.33C4.71 10.92 5.26 10.81 5.67 11.08C6.08 11.35 6.19 11.9 5.92 12.31L3.8 15.53C3.53 15.94 2.98 16.05 2.57 15.78C2.16 15.51 2.05 14.96 2.32 14.55Z"/>
      <path d="M20.2 15.51L18.09 12.31C17.82 11.9 17.93 11.35 18.34 11.08C18.75 10.81 19.3 10.92 19.57 11.33L21.68 14.53C21.95 14.94 21.84 15.49 21.43 15.76C21.02 16.03 20.47 15.92 20.2 15.51Z"/>
      <path d="M8.12 16.89L8.62 12.89C8.68 12.4 9.13 12.06 9.62 12.12C10.11 12.18 10.45 12.63 10.39 13.12L9.89 17.12C9.83 17.61 9.38 17.95 8.89 17.89C8.4 17.83 8.06 17.38 8.12 16.89Z"/>
      <path d="M14.11 17.12L13.61 13.12C13.55 12.63 13.89 12.18 14.38 12.12C14.87 12.06 15.32 12.4 15.38 12.89L15.88 16.89C15.94 17.38 15.6 17.83 15.11 17.89C14.62 17.95 14.17 17.61 14.11 17.12Z"/>
    </g>
  </g>
</svg>
